HIERARCHY
ROOT root
{
	OFFSET 0.000000 0.000000 0.000000
	CHANNELS 6 Xposition Yposition Zposition Zrotation Yrotation Xrotation
	JOINT lhip
	{
		OFFSET 0.058581 -0.082280 -0.017664
		CHANNELS 3 Zrotation Yrotation Xrotation
		JOINT lknee
		{
			OFFSET 0.043451 -0.386469 0.008037
			CHANNELS 3 Zrotation Yrotation Xrotation
			JOINT lankle
			{
				OFFSET -0.014790 -0.426874 -0.037428
				CHANNELS 3 Zrotation Yrotation Xrotation
				JOINT ltoe
				{
					OFFSET 0.041054 -0.060286 0.122042
					CHANNELS 3 Zrotation Yrotation Xrotation
					End Site
					{
						OFFSET 0.000000 0.000000 0.000000
					}
				}
			}
		}
	}
	JOINT rhip
	{
		OFFSET -0.060310 -0.090513 -0.013543
		CHANNELS 3 Zrotation Yrotation Xrotation
		JOINT rknee
		{
			OFFSET -0.043257 -0.383688 -0.004843
			CHANNELS 3 Zrotation Yrotation Xrotation
			JOINT rankle
			{
				OFFSET 0.019056 -0.420046 -0.034562
				CHANNELS 3 Zrotation Yrotation Xrotation
				JOINT rtoe
				{
					OFFSET -0.034840 -0.062106 0.130323
					CHANNELS 3 Zrotation Yrotation Xrotation
					End Site
					{
						OFFSET 0.000000 0.000000 0.000000
					}
				}
			}
		}
	}
	JOINT lowerback
	{
		OFFSET 0.004439 0.124404 -0.038385
		CHANNELS 3 Zrotation Yrotation Xrotation
		JOINT upperback
		{
			OFFSET 0.004488 0.137956 0.026820
			CHANNELS 3 Zrotation Yrotation Xrotation
			JOINT chest
			{
				OFFSET -0.002265 0.056032 0.002855
				CHANNELS 3 Zrotation Yrotation Xrotation
				JOINT lowerneck
				{
					OFFSET -0.013390 0.211636 -0.033468
					CHANNELS 3 Zrotation Yrotation Xrotation
					JOINT upperneck
					{
						OFFSET 0.010113 0.088937 0.050410
						CHANNELS 3 Zrotation Yrotation Xrotation
						End Site
						{
							OFFSET 0.000000 0.000000 0.000000
						}
					}
				}
				JOINT lclavicle
				{
					OFFSET 0.071702 0.114000 -0.018898
					CHANNELS 3 Zrotation Yrotation Xrotation
					JOINT lshoulder
					{
						OFFSET 0.122921 0.045205 -0.019046
						CHANNELS 3 Zrotation Yrotation Xrotation
						JOINT lelbow
						{
							OFFSET 0.255332 -0.015649 -0.022946
							CHANNELS 3 Zrotation Yrotation Xrotation
							JOINT lwrist
							{
								OFFSET 0.265709 0.012698 -0.007375
								CHANNELS 3 Zrotation Yrotation Xrotation
								End Site
								{
									OFFSET 0.000000 0.000000 0.000000
								}
							}
						}
					}
				}
				JOINT rclavicle
				{
					OFFSET -0.082954 0.112472 -0.023707
					CHANNELS 3 Zrotation Yrotation Xrotation
					JOINT rshoulder
					{
						OFFSET -0.113228 0.046853 -0.008472
						CHANNELS 3 Zrotation Yrotation Xrotation
						JOINT relbow
						{
							OFFSET -0.260127 -0.014369 -0.031269
							CHANNELS 3 Zrotation Yrotation Xrotation
							JOINT rwrist
							{
								OFFSET -0.269108 0.006794 -0.006027
								CHANNELS 3 Zrotation Yrotation Xrotation
								End Site
								{
									OFFSET 0.000000 0.000000 0.000000
								}
							}
						}
					}
				}
			}
		}
	}
}
MOTION
Frames: 10
Frame Time: 0.033333
0.619278 -0.709667 1.001006 -156.273432 1.782859 91.917973 0.473257 0.933953 -10.099270 -1.310455 1.303488 16.118480 2.430810 11.467951 -11.196444 0.000000 -0.000000 0.000000 1.417832 0.722954 -6.964481 -1.452744 0.963934 12.011067 0.507863 -7.304721 -9.384218 0.000000 -0.000000 0.000000 0.446337 -0.226988 6.758022 -0.792693 -3.320936 2.796154 -1.701230 -1.751509 -4.814440 1.139993 -14.594646 2.241242 3.653735 -13.551941 1.817531 -29.674154 -4.243223 8.436582 -52.199748 -4.348844 12.024579 15.281685 -36.147792 5.515873 1.456471 -5.901235 -5.800016 25.183282 12.177067 7.056601 56.672941 12.062746 18.038233 -2.190262 22.467979 15.076727 2.101661 4.348374 3.200494 
0.617577 -0.711289 1.000371 -155.560217 1.979242 91.871483 0.454065 0.055817 -10.603433 -1.354951 0.866326 17.121486 2.495672 12.402823 -11.648880 0.000000 -0.000000 0.000000 1.332241 0.421404 -6.643802 -1.097114 1.030610 11.753066 1.075330 -7.745669 -9.736426 0.000000 -0.000000 0.000000 0.769437 -0.336990 7.829078 -0.935595 -3.350461 0.685775 -1.530973 -1.660739 -3.985930 0.846984 -11.747761 1.982804 2.804832 -10.920663 3.633949 -28.923159 -4.755871 8.349299 -52.840572 -4.646295 12.002016 15.185804 -36.663139 5.807249 2.034114 -5.991450 -6.802314 24.835704 12.106004 6.954931 56.788280 11.888703 17.926179 -2.453458 21.557506 15.026609 1.866616 4.487674 2.929981 
0.613804 -0.711926 0.999585 -155.007746 1.977948 91.727532 0.188750 -0.694483 -10.648359 -1.368067 0.664882 17.737119 2.742832 12.617850 -12.284507 0.000000 -0.000000 0.000000 1.100603 0.194006 -6.441140 -1.104911 0.727538 12.117379 1.578443 -7.713665 -10.453902 0.000000 -0.000000 0.000000 0.870584 -0.114259 8.435734 -0.903408 -3.216781 -0.307188 -1.324549 -1.557772 -3.917769 0.741192 -9.242483 2.091020 2.084047 -8.715585 5.292058 -28.672294 -5.169088 8.267055 -53.109623 -5.229670 11.912704 14.889452 -36.742178 5.509068 1.716142 -6.944231 -6.938540 24.682176 11.958986 7.347166 56.504592 11.710743 17.592929 -2.888870 20.754317 14.635976 2.188637 4.704097 2.995855 
0.608163 -0.711870 0.998401 -154.526831 1.831139 91.336000 -0.186830 -1.041068 -10.095128 -1.857993 -0.306655 17.955480 2.892125 12.957813 -13.226318 0.000000 -0.000000 0.000000 0.866810 0.310181 -6.856396 -1.520137 0.535607 14.350985 1.992045 -8.137759 -11.813453 0.000000 -0.000000 0.000000 0.816071 -0.138104 9.179433 -1.020618 -2.695217 -0.993672 -1.175108 -1.334511 -3.642986 0.754875 -6.335841 2.288501 1.728032 -5.844952 6.227034 -28.484426 -5.278707 7.598030 -53.221401 -5.455129 12.092652 14.925441 -37.621929 5.156154 3.162874 -6.374021 -7.217807 24.763654 11.741163 7.292015 55.800869 11.440313 17.459131 -2.875357 20.001362 14.252857 1.952475 4.526425 3.531047 
0.604709 -0.711978 0.997638 -153.983793 1.676660 91.118186 -0.416210 -1.247945 -9.750549 -2.174027 -0.684383 18.103050 2.863478 13.021370 -14.275557 0.000000 -0.000000 0.000000 0.799464 0.626081 -7.728729 -1.972286 0.128314 16.875412 2.106736 -8.819877 -12.658822 0.000000 -0.000000 0.000000 0.592832 -0.323797 9.708112 -1.020633 -2.510048 -1.298384 -1.104881 -1.328944 -3.511714 1.065046 -4.708870 1.986726 1.481291 -4.316096 6.647159 -28.550075 -5.182817 7.385996 -52.936411 -5.622340 11.990076 15.068639 -38.382793 4.716474 3.299858 -6.634994 -7.352700 24.963073 11.568938 7.259123 55.308580 11.455384 17.420663 -2.991382 19.584736 13.902387 2.218246 4.673316 3.737082 
0.600029 -0.711543 0.995952 -153.261305 1.078532 90.840162 -1.159117 -1.548375 -9.113287 -2.846785 -1.325473 17.955487 3.192164 12.633074 -14.399769 0.000000 -0.000000 0.000000 0.442138 1.278518 -9.497592 -2.914451 -0.490653 21.369799 2.146164 -10.259853 -13.572686 0.000000 -0.000000 0.000000 -0.154179 -0.753513 10.303007 -1.104609 -2.237348 -1.421947 -1.080390 -1.399733 -3.162138 1.427064 -3.132322 1.390434 1.347961 -2.796739 6.585888 -28.358814 -4.883092 7.053424 -52.379837 -5.726958 11.869642 14.999917 -39.662424 4.421267 4.115750 -6.671546 -7.990561 25.125000 11.383176 7.090029 55.001006 11.554300 17.594933 -3.382996 19.428597 13.134002 1.944624 4.472411 4.099444 
0.595591 -0.710359 0.994531 -152.448928 0.375905 90.111728 -2.124776 -1.659764 -7.871756 -3.271225 -2.441146 17.649888 3.626754 12.568370 -14.641523 0.000000 -0.000000 0.000000 0.066142 2.069911 -11.418910 -3.931652 -1.993766 27.006678 2.065671 -12.307836 -13.869919 0.000000 -0.000000 0.000000 -0.955008 -1.463320 11.512910 -1.338710 -1.968001 -1.454154 -1.169588 -1.472225 -2.788625 1.778890 -1.826133 0.469232 1.237815 -1.569407 6.058769 -28.404053 -4.852068 6.837641 -51.313884 -5.505291 11.509887 15.022706 -40.900941 3.868196 4.971556 -6.854448 -8.276858 25.397015 11.418570 6.845493 54.897908 11.426771 17.651033 -4.129780 19.717225 11.819884 1.396484 4.433641 4.497388 
0.591119 -0.708060 0.994028 -151.663327 -0.150078 89.382259 -3.053009 -1.837050 -6.479366 -3.280675 -3.277847 17.153513 3.862261 13.094226 -15.085266 0.000000 -0.000000 0.000000 -0.121649 3.036118 -13.872991 -5.054917 -3.196007 33.618559 1.901414 -14.739256 -12.235506 0.000000 -0.000000 0.000000 -1.471035 -2.202304 12.655714 -1.565348 -1.670341 -1.227461 -1.273568 -1.713605 -2.601384 1.774674 -1.112477 -0.487728 0.921394 -0.505350 5.555939 -28.900086 -5.095906 6.949308 -49.939837 -5.282003 10.967199 15.212094 -41.027518 2.859477 4.940325 -7.223284 -7.749482 25.778367 11.530201 6.572982 54.540715 11.027692 17.760931 -4.536181 20.642801 10.386656 2.276093 4.799141 4.256768 
0.586787 -0.704032 0.994674 -150.929218 -0.137291 88.662246 -3.399789 -1.695207 -4.807258 -3.285640 -4.633508 16.415391 4.059562 13.235459 -15.074398 0.000000 -0.000000 0.000000 0.289382 4.073890 -16.254147 -5.853925 -4.382090 39.490689 1.021932 -16.817215 -10.748084 0.000000 -0.000000 0.000000 -1.726377 -3.039390 13.755740 -1.549176 -1.354122 -0.989992 -1.162798 -1.880695 -2.589297 1.373509 -0.508895 -0.762138 0.526920 0.567881 4.616765 -28.877134 -5.412292 7.064029 -49.680853 -4.898353 10.513686 15.343891 -40.078985 2.485999 5.295448 -6.920762 -8.179938 25.842352 11.675023 6.521891 54.448879 10.804507 17.657652 -4.930914 20.905601 9.856242 1.750803 4.801716 4.152346 
0.580016 -0.697330 0.995770 -149.936967 0.358442 88.203118 -3.174640 -1.314192 -3.108280 -3.199294 -5.992563 15.457071 3.861555 13.549802 -15.330382 0.000000 -0.000000 0.000000 1.074545 5.342507 -19.241357 -5.589441 -5.431768 43.200962 0.993940 -16.668334 -10.562213 0.000000 -0.000000 0.000000 -1.315352 -4.084754 14.801715 -1.500506 -1.105496 -0.951783 -1.011725 -2.030770 -2.802940 0.707922 0.216788 -0.714399 -0.002370 1.557133 4.124986 -28.837396 -5.877305 7.252311 -50.334779 -4.300148 10.069501 15.973740 -37.582350 1.012866 5.021899 -6.230056 -8.400527 25.548071 11.903703 6.688349 54.419350 10.215685 17.546749 -4.622017 21.550229 10.177431 2.185275 5.105526 3.356292 
